# xmcd CD database file
#
# Track frame offsets:
#	150
#	16800
#	30691
#	42011
#	64981
#	74633
#	87629
#	98267
#	106272
#	115772
#	131340
#
# Disc length: 1941 seconds
#
# Revision: 0
# Processed by: cddbd v1.5.2PL0 Copyright (c) Steve Scherf et al.
# Submitted via: CDex 1.70beta2
#
DISCID=8907930b
DTITLE=Southern Railway - Steps to Nashvillr
DYEAR=2007
DGENRE=Country
TTITLE0=Black Forest Train
TTITLE1=Schwäbisches Meer
TTITLE2=You're locking good
TTITLE3=The Orange Blossom Special
TTITLE4=Real Truckers
TTITLE5=One more Whiskey
TTITLE6=Downtown Mickey
TTITLE7=Tell Leroy I'm gone
TTITLE8=Alligator Race
TTITLE9=Lake Constance Song
TTITLE10=Country Queen
EXTD=YEAR: 2007
EXTT0=
EXTT1=
EXTT2=
EXTT3=
EXTT4=
EXTT5=
EXTT6=
EXTT7=
EXTT8=
EXTT9=
EXTT10=
PLAYORDER=
